<svg viewBox="0 0 136 41" version="1.1" xmlns="http://www.w3.org/2000/svg" xmlns:xlink="http://www.w3.org/1999/xlink"><defs><linearGradient x1="61.0861734%" y1="5.07208373%" x2="26.5050137%" y2="71.8681176%" id="linearGradient-1"><stop stop-color="#009FFF" offset="0%"></stop><stop stop-color="#00A0FF" offset="0.657445%"></stop><stop stop-color="#00BDFF" offset="26.01%"></stop><stop stop-color="#00D1FF" offset="51.22%"></stop><stop stop-color="#00DEFF" offset="76.04%"></stop><stop stop-color="#00E2FF" offset="100%"></stop></linearGradient><linearGradient x1="107.652496%" y1="50.2051581%" x2="-130.571391%" y2="49.8593816%" id="linearGradient-2"><stop stop-color="#FFDF00" offset="0%"></stop><stop stop-color="#FFBC00" offset="40.87%"></stop><stop stop-color="#FFA400" offset="77.54%"></stop><stop stop-color="#FF9B00" offset="100%"></stop></linearGradient><linearGradient x1="86.3391351%" y1="30.9562422%" x2="-50.1049323%" y2="135.502912%" id="linearGradient-3"><stop stop-color="#FF3A44" offset="0%"></stop><stop stop-color="#C21162" offset="100%"></stop></linearGradient><linearGradient x1="-18.7330186%" y1="-12.2346938%" x2="42.1243567%" y2="34.9645127%" id="linearGradient-4"><stop stop-color="#329F71" offset="0%"></stop><stop stop-color="#2DA671" offset="6.85%"></stop><stop stop-color="#15CE74" offset="47.62%"></stop><stop stop-color="#06E675" offset="80.09%"></stop><stop stop-color="#00EF76" offset="100%"></stop></linearGradient></defs><g id="Page-1" stroke="none" stroke-width="1" fill="none" fill-rule="evenodd"><g id="Home-Page" transform="translate(-117.000000, -3166.000000)"><g id="chplay" transform="translate(117.000000, 3166.000000)"><path d="M130.448182,40.6945455 L5.04,40.4845455 C2.27181818,40.4845455 0.0190909091,38.2127273 0.0381818182,35.4636364 L0.0954545455,5.37636364 C0.0954545455,2.60818182 2.36727273,0.355454545 5.11636364,0.374545455 L130.524545,0.584545455 C133.292727,0.584545455 135.545455,2.85636364 135.526364,5.60545455 L135.469091,35.6927273 C135.469091,38.4418182 133.216364,40.6945455 130.448182,40.6945455 Z" id="Path" fill="#000000"></path><path d="M130.524545,1.36727273 C132.853636,1.36727273 134.743636,3.25727273 134.724545,5.58636364 L134.667273,35.6736364 C134.667273,38.0027273 132.777273,39.8927273 130.448182,39.8736364 L5.04,39.6636364 C2.71090909,39.6636364 0.820909091,37.7736364 0.84,35.4445455 L0.897272727,5.35727273 C0.897272727,3.02818182 2.78727273,1.13818182 5.11636364,1.15727273 L130.524545,1.36727273 L130.524545,1.36727273 Z M130.524545,0.565454545 L5.11636364,0.355454545 C2.34818182,0.355454545 0.0954545455,2.60818182 0.0954545455,5.35727273 L0.0381818182,35.4445455 C0.0381818182,38.2127273 2.29090909,40.4654545 5.04,40.4654545 L130.448182,40.6754545 C133.216364,40.6754545 135.469091,38.4227273 135.469091,35.6736364 L135.526364,5.58636364 C135.526364,2.83727273 133.273636,0.565454545 130.524545,0.565454545 L130.524545,0.565454545 Z" id="Shape" fill="#A5A5A5" fill-rule="nonzero"></path><path d="M68.4218182,22.2718182 C66.0545455,22.2718182 64.1263636,24.0663636 64.1263636,26.5290909 C64.1263636,28.9918182 66.0354545,30.8054545 68.4027273,30.8054545 C70.77,30.8054545 72.6981818,29.0109091 72.6981818,26.5481818 C72.6981818,24.0854545 70.7890909,22.2909091 68.4218182,22.2718182 Z M68.4027273,29.1254545 C67.1045455,29.1254545 65.9972727,28.0563636 65.9972727,26.5290909 C65.9972727,25.0018182 67.1236364,23.9518182 68.4027273,23.9518182 C69.7009091,23.9518182 70.8081818,25.0018182 70.8081818,26.5481818 C70.8272727,28.0754545 69.7009091,29.1254545 68.4027273,29.1254545 Z M59.0863636,22.2718182 C56.7190909,22.2718182 54.7909091,24.0663636 54.7909091,26.5290909 C54.7909091,28.9918182 56.7,30.8054545 59.0672727,30.8054545 C61.4345455,30.8054545 63.3627273,29.0109091 63.3627273,26.5481818 C63.3627273,24.0663636 61.4345455,22.2718182 59.0863636,22.2718182 Z M59.0672727,29.1063636 C57.7690909,29.1063636 56.6618182,28.0372727 56.6618182,26.51 C56.6618182,24.9827273 57.7881818,23.9327273 59.0672727,23.9327273 C60.3654545,23.9327273 61.4727273,24.9827273 61.4727273,26.5290909 C61.4727273,28.0563636 60.3654545,29.1254545 59.0672727,29.1063636 Z M47.9563636,23.5509091 L47.9563636,25.3645455 L52.29,25.3645455 C52.1563636,26.3763636 51.8127273,27.1209091 51.2972727,27.6363636 C50.6672727,28.2663636 49.6745455,28.9536364 47.9563636,28.9536364 C45.2836364,28.9536364 43.2027273,26.7963636 43.2218182,24.1236364 C43.2218182,21.4509091 45.3218182,19.3127273 47.9754545,19.3127273 C49.4072727,19.3127273 50.4572727,19.8854545 51.24,20.6109091 L52.5190909,19.3318182 C51.4309091,18.3009091 49.9990909,17.4990909 47.9754545,17.4990909 C44.3290909,17.4990909 41.2554545,20.4581818 41.2363636,24.1045455 C41.2363636,27.7509091 44.2909091,30.7290909 47.9563636,30.7481818 C49.9227273,30.7481818 51.4118182,30.0990909 52.5763636,28.8963636 C53.7790909,27.6936364 54.1418182,26.0136364 54.1609091,24.6581818 C54.1609091,24.2381818 54.1227273,23.8563636 54.0654545,23.5318182 L47.9563636,23.5509091 Z M93.4118182,25.04 C93.0490909,24.0854545 91.98,22.3290909 89.7654545,22.31 C87.57,22.31 85.7372727,24.0281818 85.7372727,26.5672727 C85.7372727,28.9536364 87.5318182,30.8436364 89.9563636,30.8436364 C91.9036364,30.8436364 93.0490909,29.66 93.5072727,28.9536364 L92.0563636,27.98 C91.5790909,28.6863636 90.9109091,29.1636364 89.9563636,29.1636364 C89.0018182,29.1636364 88.3336364,28.7245455 87.8945455,27.8654545 L93.6027273,25.5172727 L93.4118182,25.04 Z M87.5890909,26.4527273 C87.5509091,24.8109091 88.8681818,23.9709091 89.8227273,23.9709091 C90.5672727,23.9709091 91.1972727,24.3527273 91.4072727,24.8872727 L87.5890909,26.4527273 Z M82.95,30.5763636 L84.8209091,30.5763636 L84.84,18.0336364 L82.9690909,18.0336364 L82.95,30.5763636 Z M79.8954545,23.2454545 L79.8381818,23.2454545 C79.4181818,22.7490909 78.6163636,22.2909091 77.5854545,22.2909091 C75.4472727,22.2909091 73.5,24.1618182 73.4809091,26.5672727 C73.4809091,28.9536364 75.4281818,30.8245455 77.5663636,30.8245455 C78.5781818,30.8245455 79.3990909,30.3663636 79.8190909,29.8509091 L79.8763636,29.8509091 L79.8763636,30.4618182 C79.8763636,32.1036364 78.9981818,32.9627273 77.5854545,32.9627273 C76.44,32.9627273 75.7336364,32.1418182 75.4472727,31.4354545 L73.8054545,32.1036364 C74.2636364,33.23 75.5236364,34.6236364 77.5854545,34.6236364 C79.7809091,34.6236364 81.6518182,33.3445455 81.6518182,30.1945455 L81.6709091,22.5390909 L79.8954545,22.5390909 L79.8954545,23.2454545 Z M77.7190909,29.1445455 C76.4209091,29.1445455 75.3518182,28.0563636 75.3518182,26.5672727 C75.3518182,25.0590909 76.44,23.9709091 77.7381818,23.9709091 C79.0172727,23.9709091 80.01,25.0781818 80.01,26.5863636 C80.01,28.0754545 78.9981818,29.1445455 77.7190909,29.1445455 Z M102.212727,18.0718182 L97.7263636,18.0718182 L97.7072727,30.6145455 L99.5781818,30.6145455 L99.5781818,25.8609091 L102.193636,25.8609091 C104.274545,25.8609091 106.317273,24.3718182 106.317273,21.9663636 C106.317273,19.58 104.274545,18.0718182 102.212727,18.0718182 Z M102.250909,24.1236364 L99.5972727,24.1236364 L99.5972727,19.8281818 L102.250909,19.8281818 C103.644545,19.8281818 104.446364,20.9927273 104.446364,21.9854545 C104.446364,22.94 103.644545,24.1236364 102.250909,24.1236364 Z M113.82,22.3290909 C112.464545,22.3290909 111.051818,22.9209091 110.479091,24.2381818 L112.14,24.9254545 C112.502727,24.2381818 113.151818,24.0090909 113.858182,24.0090909 C114.831818,24.0090909 115.805455,24.6009091 115.824545,25.6318182 L115.824545,25.7654545 C115.480909,25.5745455 114.755455,25.2881818 113.877273,25.2690909 C112.082727,25.2690909 110.269091,26.2427273 110.25,28.0945455 C110.25,29.7745455 111.72,30.8627273 113.361818,30.8627273 C114.621818,30.8627273 115.309091,30.3090909 115.748182,29.6409091 L115.805455,29.6409091 L115.805455,30.6145455 L117.619091,30.6145455 L117.619091,25.8036364 C117.619091,23.5890909 115.958182,22.3290909 113.82,22.3290909 Z M113.571818,29.2018182 C112.960909,29.2018182 112.101818,28.8963636 112.101818,28.1327273 C112.101818,27.1590909 113.170909,26.7963636 114.087273,26.7963636 C114.908182,26.7963636 115.29,26.9681818 115.805455,27.2163636 C115.652727,28.3809091 114.66,29.2018182 113.571818,29.2018182 Z M124.205455,22.6345455 L122.048182,28.0754545 L121.990909,28.0754545 L119.776364,22.6345455 L117.752727,22.6345455 L121.074545,30.2327273 L119.165455,34.4518182 L121.112727,34.4518182 L126.286364,22.6345455 L124.205455,22.6345455 Z M107.329091,30.6145455 L109.2,30.6145455 L109.219091,18.0909091 L107.348182,18.0909091 L107.329091,30.6145455 Z" id="Shape" fill="#FFFFFF" fill-rule="nonzero"></path><g id="Group" transform="translate(7.636364, 6.636364)"><path d="M2.92090909,1.27909091 C2.63454545,1.58454545 2.46272727,2.06181818 2.46272727,2.69181818 L2.42454545,24.8754545 C2.42454545,25.5054545 2.59636364,25.9827273 2.88272727,26.2881818 L2.95909091,26.3645455 L15.4063636,13.9554545 L15.4063636,13.8027273 L15.4063636,13.65 L2.99727273,1.20272727 L2.92090909,1.27909091 Z" id="Path" fill="url(#linearGradient-1)"></path><path d="M19.5490909,18.0981818 L15.4063636,13.9554545 L15.4063636,13.8027273 L15.4063636,13.65 L19.5490909,9.50727273 L19.6445455,9.56454545 L24.5509091,12.3709091 C25.9445455,13.1727273 25.9445455,14.4709091 24.5509091,15.2727273 L19.6445455,18.06 L19.5490909,18.0981818 Z" id="Path" fill="url(#linearGradient-2)"></path><path d="M19.6254545,18.06 L15.3872727,13.8218182 L2.86363636,26.3072727 C3.32181818,26.8036364 4.08545455,26.8609091 4.94454545,26.3645455 L19.6254545,18.06" id="Path" fill="url(#linearGradient-3)"></path><path d="M19.6445455,9.58363636 L5.00181818,1.24090909 C4.14272727,0.744545455 3.37909091,0.801818182 2.92090909,1.29818182 L15.4063636,13.8218182 L19.6445455,9.58363636 Z" id="Path" fill="url(#linearGradient-4)"></path><g transform="translate(0.000000, 17.181818)" fill="#000000" id="Path"><path d="M19.5490909,0.782727273 L4.96363636,9.03 C4.14272727,9.48818182 3.41727273,9.45 2.95909091,9.03 L2.95909091,9.03 L2.88272727,9.10636364 L2.88272727,9.10636364 L2.95909091,9.18272727 L2.95909091,9.18272727 C3.41727273,9.60272727 4.16181818,9.64090909 4.96363636,9.18272727 L19.6254545,0.878181818 L19.5490909,0.782727273 Z" opacity="0.2"></path><path d="M2.88272727,8.95363636 C2.59636364,8.64818182 2.42454545,8.17090909 2.42454545,7.54090909 L2.42454545,7.69363636 C2.42454545,8.32363636 2.59636364,8.80090909 2.88272727,9.10636364 L2.95909091,9.03 L2.88272727,8.95363636 Z" opacity="0.12"></path></g><path d="M24.5509091,15.12 L19.5490909,17.9454545 L19.6445455,18.0409091 L24.5509091,15.2727273 C25.2572727,14.8718182 25.6009091,14.3563636 25.6009091,13.8218182 L25.6009091,13.8218182 C25.5436364,14.2990909 25.1809091,14.7572727 24.5509091,15.12 Z" id="Path" fill="#000000" opacity="0.12"></path><path d="M5.00181818,1.37454545 L24.5509091,12.5236364 C25.1809091,12.8863636 25.5436364,13.3445455 25.6009091,13.8218182 L25.6009091,13.8218182 C25.6009091,13.3063636 25.2572727,12.7718182 24.5509091,12.3709091 L5.00181818,1.22181818 C3.60818182,0.42 2.44363636,1.08818182 2.44363636,2.69181818 L2.44363636,2.84454545 C2.46272727,1.24090909 3.60818182,0.572727273 5.00181818,1.37454545 Z" id="Path" fill="#FFFFFF" opacity="0.25"></path></g><polygon id="Path" stroke="#FFFFFF" stroke-width="0.2" fill="#FFFFFF" points="43.9090909 13.1463636 43.1645455 13.1463636 43.1645455 8.10636364 41.5609091 8.10636364 41.5609091 7.4 45.5127273 7.4 45.5127273 8.10636364 43.9090909 8.10636364"></polygon><path d="M46.6772727,11.4663636 L46.1045455,13.1654545 L45.3790909,13.1654545 L47.2309091,7.76272727 L48.0709091,7.76272727 L49.9036364,13.1654545 L49.1590909,13.1654545 L48.5863636,11.4663636 L46.6772727,11.4663636 Z M48.4527273,10.9127273 L47.9181818,9.34727273 C47.8036364,9.00363636 47.7272727,8.67909091 47.6318182,8.35454545 L47.6127273,8.35454545 C47.5363636,8.67909091 47.4409091,9.00363636 47.3454545,9.32818182 L46.8109091,10.8936364 L48.4527273,10.9127273 Z M47.4790909,7.36181818 C47.6127273,7.01818182 47.8990909,6.96090909 47.8990909,6.69363636 C47.8990909,6.54090909 47.7845455,6.44545455 47.6318182,6.44545455 C47.46,6.44545455 47.3263636,6.59818182 47.2309091,6.73181818 L46.9636364,6.57909091 C47.1163636,6.29272727 47.3454545,6.04454545 47.7654545,6.04454545 C48.1281818,6.04454545 48.4336364,6.29272727 48.4336364,6.61727273 C48.4336364,7.01818182 48.0709091,7.11363636 47.8609091,7.47636364 L47.4790909,7.36181818 Z" id="Shape" stroke="#FFFFFF" stroke-width="0.2" fill="#FFFFFF" fill-rule="nonzero"></path><polygon id="Path" stroke="#FFFFFF" stroke-width="0.2" fill="#FFFFFF" points="50.7245455 13.1654545 50.7436364 7.41909091 51.4881818 7.41909091 51.4690909 13.1654545"></polygon><polygon id="Path" stroke="#FFFFFF" stroke-width="0.2" fill="#FFFFFF" points="54.3709091 13.1654545 54.39 7.41909091 55.2872727 7.41909091 58.0745455 11.8863636 58.1127273 11.8863636 58.0745455 10.7790909 58.0745455 7.41909091 58.8190909 7.41909091 58.8 13.1654545 58.0363636 13.1654545 55.1154545 8.46909091 55.0772727 8.46909091 55.1154545 9.57636364 55.1154545 13.1654545"></polygon><path d="M64.7754545,10.4354545 C64.7754545,12.2872727 63.6490909,13.28 62.2554545,13.28 C60.8236364,13.28 59.8309091,12.1727273 59.8309091,10.5309091 C59.8309091,8.81272727 60.9,7.68636364 62.3509091,7.68636364 C63.8209091,7.68636364 64.7754545,8.83181818 64.7754545,10.4354545 Z M60.5754545,10.5118182 C60.5754545,11.6572727 61.2054545,12.7072727 62.2936364,12.7072727 C63.4009091,12.7072727 64.0309091,11.6954545 64.0309091,10.4545455 C64.0309091,9.38545455 63.4772727,8.25909091 62.3127273,8.25909091 C61.1672727,8.25909091 60.5754545,9.32818182 60.5754545,10.5118182 Z M62.58,6.56 L63.42,7.47636364 L62.8281818,7.47636364 L62.3127273,6.92272727 L62.2936364,6.92272727 L61.7781818,7.47636364 L61.2054545,7.47636364 L62.0263636,6.56 L62.58,6.56 Z M61.8927273,14.2345455 C61.8927273,14.0245455 62.0645455,13.8336364 62.2936364,13.8336364 C62.5036364,13.8336364 62.6754545,14.0245455 62.6754545,14.2345455 C62.6754545,14.4445455 62.5036364,14.6354545 62.2745455,14.6354545 C62.0836364,14.6354545 61.8927273,14.4445455 61.8927273,14.2345455 Z" id="Shape" stroke="#FFFFFF" stroke-width="0.2" fill="#FFFFFF" fill-rule="nonzero"></path><polygon id="Path" stroke="#FFFFFF" stroke-width="0.2" fill="#FFFFFF" points="65.8063636 13.1845455 65.8254545 7.43818182 66.57 7.43818182 66.5509091 13.1845455"></polygon><path d="M69.4718182,13.2036364 L69.4909091,7.45727273 L71.2472727,7.45727273 C72.1254545,7.45727273 72.8318182,7.72454545 73.3663636,8.25909091 C73.9009091,8.79363636 74.1681818,9.48090909 74.1490909,10.34 C74.1490909,11.1990909 73.8818182,11.8863636 73.3472727,12.4209091 C72.8127273,12.9554545 72.1063636,13.2227273 71.2281818,13.2227273 L69.4718182,13.2036364 Z M70.2163636,12.4972727 L71.2281818,12.4972727 C71.8963636,12.4972727 72.4118182,12.3063636 72.8127273,11.9245455 C73.1945455,11.5427273 73.4045455,11.0081818 73.4045455,10.3209091 C73.4045455,9.63363636 73.2136364,9.11818182 72.8318182,8.73636364 C72.45,8.35454545 71.9154545,8.16363636 71.2472727,8.16363636 L70.2354545,8.16363636 L70.2163636,12.4972727 Z" id="Shape" stroke="#FFFFFF" stroke-width="0.2" fill="#FFFFFF" fill-rule="nonzero"></path><path d="M77.2036364,13.3372727 C76.5736364,13.3372727 76.0581818,13.1272727 75.6763636,12.7072727 C75.2754545,12.2872727 75.0845455,11.7527273 75.0845455,11.0654545 L75.0845455,7.45727273 L75.8290909,7.45727273 L75.8290909,11.1036364 C75.8290909,11.5618182 75.9436364,11.9245455 76.1918182,12.2109091 C76.4209091,12.4972727 76.7645455,12.6309091 77.2227273,12.6309091 C77.6809091,12.6309091 78.0245455,12.4972727 78.2536364,12.2109091 C78.4827273,11.9245455 78.6163636,11.5618182 78.6163636,11.1036364 L78.6163636,7.45727273 L79.3609091,7.45727273 L79.3609091,11.0654545 C79.3609091,11.7527273 79.17,12.2872727 78.7881818,12.7072727 C78.3872727,13.1272727 77.8718182,13.3372727 77.2036364,13.3372727 Z" id="Path" stroke="#FFFFFF" stroke-width="0.2" fill="#FFFFFF"></path><polygon id="Path" stroke="#FFFFFF" stroke-width="0.2" fill="#FFFFFF" points="80.6018182 13.2227273 80.6209091 7.47636364 81.5181818 7.47636364 84.3054545 11.9436364 84.3436364 11.9436364 84.3054545 10.8363636 84.3054545 7.47636364 85.05 7.47636364 85.0309091 13.2227273 84.2672727 13.2227273 81.3463636 8.52636364 81.3081818 8.52636364 81.3463636 9.63363636 81.3463636 13.2227273"></polygon><path d="M91.8845455,10.5881818 C91.8845455,11.39 91.6363636,12.0390909 91.1590909,12.4972727 C90.6245455,13.07 89.9181818,13.3372727 89.04,13.3372727 C88.2190909,13.3372727 87.5127273,13.0509091 86.9209091,12.4781818 C86.3481818,11.9054545 86.0427273,11.18 86.0618182,10.34 C86.0618182,9.48090909 86.3481818,8.77454545 86.94,8.20181818 C87.5127273,7.62909091 88.2190909,7.34272727 89.0590909,7.34272727 C89.4790909,7.34272727 89.8609091,7.41909091 90.2427273,7.59090909 C90.6245455,7.74363636 90.9109091,7.97272727 91.14,8.24 L90.6245455,8.73636364 C90.2427273,8.27818182 89.7272727,8.04909091 89.0590909,8.04909091 C88.4481818,8.04909091 87.9327273,8.25909091 87.4936364,8.67909091 C87.0545455,9.09909091 86.8254545,9.65272727 86.8254545,10.34 C86.8254545,11.0272727 87.0354545,11.5809091 87.4936364,12.0009091 C87.9327273,12.4209091 88.4481818,12.6309091 89.0590909,12.65 C89.7081818,12.65 90.2427273,12.44 90.6627273,12.02 C90.9490909,11.7336364 91.1018182,11.3518182 91.14,10.8554545 L89.0590909,10.8554545 L89.0590909,10.1681818 L91.8463636,10.1681818 C91.8654545,10.3209091 91.8845455,10.4545455 91.8845455,10.5881818 Z" id="Path" stroke="#FFFFFF" stroke-width="0.2" fill="#FFFFFF"></path><polygon id="Path" stroke="#FFFFFF" stroke-width="0.2" fill="#FFFFFF" points="96.5045455 13.2418182 95.76 13.2418182 95.76 8.20181818 94.1563636 8.20181818 94.1563636 7.49545455 98.1081818 7.49545455 98.1081818 8.20181818 96.5045455 8.20181818"></polygon><path d="M98.9290909,13.2418182 L98.9481818,7.49545455 L100.914545,7.49545455 C101.410909,7.49545455 101.830909,7.66727273 102.174545,7.99181818 C102.537273,8.31636364 102.709091,8.71727273 102.709091,9.21363636 C102.709091,9.61454545 102.575455,9.97727273 102.308182,10.2827273 C102.040909,10.5881818 101.716364,10.7790909 101.334545,10.8554545 L101.315455,10.8745455 L102.919091,13.2036364 L102.919091,13.2418182 L102.040909,13.2418182 L100.494545,10.9127273 L99.6736364,10.9127273 L99.6736364,13.2418182 L98.9290909,13.2418182 Z M99.6736364,10.2254545 L100.857273,10.2254545 C101.143636,10.2254545 101.410909,10.13 101.620909,9.93909091 C101.830909,9.74818182 101.945455,9.5 101.945455,9.21363636 C101.945455,8.96545455 101.85,8.73636364 101.659091,8.52636364 C101.468182,8.31636364 101.22,8.22090909 100.914545,8.22090909 L99.6736364,8.22090909 L99.6736364,10.2254545 Z" id="Shape" stroke="#FFFFFF" stroke-width="0.2" fill="#FFFFFF" fill-rule="nonzero"></path><path d="M107.119091,8.22090909 L104.503636,8.22090909 L104.503636,10.0345455 L106.870909,10.0345455 L106.870909,10.7218182 L104.503636,10.7218182 L104.503636,12.5354545 L107.119091,12.5354545 L107.119091,13.2418182 L103.759091,13.2418182 L103.778182,7.49545455 L107.138182,7.49545455 L107.119091,8.22090909 Z M104.293636,7.01818182 L104.293636,6.98 L105.114545,6.04454545 L105.763636,6.04454545 L106.584545,6.98 L106.584545,7.01818182 L105.878182,7.01818182 L105.477273,6.54090909 L105.42,6.54090909 L105,7.01818182 L104.293636,7.01818182 Z" id="Shape" stroke="#FFFFFF" stroke-width="0.2" fill="#FFFFFF" fill-rule="nonzero"></path><polygon id="Path" stroke="#FFFFFF" stroke-width="0.2" fill="#FFFFFF" points="108.169091 13.2609091 108.188182 7.51454545 109.085455 7.51454545 111.872727 11.9818182 111.910909 11.9818182 111.872727 10.8745455 111.872727 7.51454545 112.617273 7.51454545 112.598182 13.2609091 111.834545 13.2609091 108.913636 8.56454545 108.875455 8.56454545 108.913636 9.67181818 108.913636 13.2609091"></polygon></g></g></g></svg>
