<svg viewBox="0 0 120 41" version="1.1" xmlns="http://www.w3.org/2000/svg" xmlns:xlink="http://www.w3.org/1999/xlink"><g id="Page-1" stroke="none" stroke-width="1" fill="none" fill-rule="evenodd"><g id="Home-Page" transform="translate(-256.000000, -3166.000000)"><g id="appstore" transform="translate(256.000000, 3165.000000)"><path d="M110.189,1.1736 L9.589,1.0006 C9.222,0.9996 8.86,0.9996 8.495,1.0006 C8.188,1.0016 7.884,1.0076 7.576,1.0116 C6.91,1.0276 6.236,1.0676 5.571,1.1856 C4.902,1.3016 4.279,1.5006 3.669,1.8086 C3.07,2.1136 2.522,2.5116 2.048,2.9856 C1.569,3.4576 1.171,4.0056 0.868,4.6046 C0.555,5.2116 0.357,5.8366 0.239,6.5056 C0.118,7.1676 0.075,7.8376 0.056,8.5076 C0.046,8.8146 0.045,9.1216 0.04,9.4286 C0.04,9.7906 0.039,10.1536 0.038,10.5206 L0.001,31.4486 C0.001,31.8186 0.001,32.1796 0,32.5426 C0.004,32.8536 0.004,33.1536 0.013,33.4646 C0.03,34.1346 0.07,34.8046 0.189,35.4666 C0.305,36.1376 0.501,36.7656 0.811,37.3716 C1.113,37.9686 1.508,38.5186 1.987,38.9886 C2.459,39.4666 3.005,39.8646 3.603,40.1696 C4.211,40.4836 4.834,40.6826 5.502,40.8046 C6.168,40.9246 6.841,40.9646 7.506,40.9846 C7.816,40.9916 8.12,40.9956 8.425,40.9966 C8.792,40.9996 9.154,40.9996 9.52,41.0006 L110.12,41.1736 C110.479,41.1746 110.844,41.1746 111.204,41.1736 C111.508,41.1746 111.821,41.1706 112.126,41.1646 C112.795,41.1476 113.468,41.1096 114.127,40.9906 C114.796,40.8706 115.419,40.6756 116.036,40.3636 C116.633,40.0616 117.181,39.6646 117.655,39.1876 C118.132,38.7186 118.53,38.1706 118.839,37.5756 C119.147,36.9696 119.347,36.3416 119.461,35.6726 C119.585,35.0106 119.626,34.3406 119.651,33.6706 C119.655,33.3606 119.656,33.0596 119.656,32.7486 C119.665,32.3856 119.666,32.0246 119.666,31.6546 L119.702,10.7266 C119.703,10.3606 119.703,9.9966 119.696,9.6346 C119.697,9.3276 119.697,9.0206 119.694,8.7136 C119.671,8.0436 119.633,7.3736 119.511,6.7116 C119.399,6.0406 119.201,5.4156 118.896,4.8076 C118.588,4.2076 118.193,3.6576 117.716,3.1846 C117.245,2.7096 116.699,2.3106 116.101,2.0026 C115.487,1.6926 114.864,1.4896 114.195,1.3716 C113.537,1.2516 112.865,1.2096 112.195,1.1926 C111.89,1.1866 111.578,1.1806 111.273,1.1776 C110.914,1.1756 110.548,1.1746 110.189,1.1736" id="Fill-1" fill="#B5B5B5"></path><path d="M8.4322,40.1238 C8.1272,40.1228 7.8292,40.1188 7.5282,40.1108 C6.9682,40.0948 6.3052,40.0618 5.6592,39.9448 C5.0482,39.8338 4.5062,39.6528 4.0022,39.3948 C3.4822,39.1288 3.0132,38.7858 2.6082,38.3758 C2.1942,37.9688 1.8552,37.5008 1.5892,36.9778 C1.3312,36.4718 1.1552,35.9298 1.0492,35.3188 C0.9282,34.6458 0.8982,33.9638 0.8862,33.4438 C0.8802,33.2328 0.8722,32.5308 0.8722,32.5308 L0.9122,9.4308 C0.9122,9.4308 0.9222,8.7388 0.9292,8.5358 C0.9432,8.0118 0.9752,7.3298 1.0982,6.6638 C1.2052,6.0508 1.3842,5.5088 1.6442,5.0028 C1.9112,4.4778 2.2522,4.0098 2.6612,3.6058 C3.0762,3.1928 3.5472,2.8518 4.0662,2.5868 C4.5792,2.3268 5.1212,2.1488 5.7202,2.0458 C6.3932,1.9258 7.0762,1.8958 7.5952,1.8848 L8.4982,1.8738 L111.2662,2.0508 L112.1792,2.0648 C112.6922,2.0788 113.3742,2.1098 114.0372,2.2308 C114.6402,2.3378 115.1852,2.5178 115.7072,2.7808 C116.2202,3.0448 116.6892,3.3888 117.0972,3.7998 C117.5062,4.2068 117.8482,4.6788 118.1192,5.2058 C118.3752,5.7178 118.5502,6.2588 118.6512,6.8548 C118.7662,7.4858 118.8012,8.1348 118.8222,8.7428 C118.8242,9.0258 118.8232,9.3298 118.8232,9.6328 C118.8292,10.0078 118.8292,10.3648 118.8282,10.7248 L118.7922,31.6528 C118.7922,32.0168 118.7912,32.3708 118.7832,32.7278 C118.7832,33.0538 118.7822,33.3518 118.7782,33.6578 C118.7562,34.2468 118.7182,34.8948 118.6032,35.5118 C118.4982,36.1248 118.3222,36.6668 118.0602,37.1808 C117.7902,37.6998 117.4472,38.1688 117.0422,38.5638 C116.6282,38.9818 116.1602,39.3218 115.6412,39.5848 C115.1222,39.8478 114.5922,40.0208 113.9722,40.1318 C113.3312,40.2468 112.6682,40.2768 112.1032,40.2918 C111.8102,40.2978 111.5032,40.3018 111.2052,40.3008 L110.1212,40.3008 L8.4322,40.1238 Z" id="Fill-4" fill="#000000"></path><path d="M24.7887,21.3279 C24.7677,18.5769 27.0477,17.2419 27.1517,17.1799 C25.8657,15.2969 23.8667,15.0359 23.1647,15.0159 C21.4857,14.8359 19.8557,16.0149 18.9997,16.0129 C18.1277,16.0119 16.8117,15.0209 15.3927,15.0489 C13.5667,15.0729 11.8547,16.1279 10.9157,17.7679 C8.9757,21.1129 10.4097,26.0369 12.2577,28.7469 C13.1827,30.0739 14.2637,31.5569 15.6807,31.5059 C17.0677,31.4509 17.5877,30.6249 19.2617,30.6279 C20.9207,30.6309 21.4047,31.5159 22.8517,31.4849 C24.3397,31.4639 25.2797,30.1579 26.1767,28.8219 C27.2497,27.3039 27.6827,25.8079 27.6997,25.7309 C27.6657,25.7199 24.8107,24.6259 24.7887,21.3279" id="Fill-6" fill="#FFFFFF"></path><path d="M22.0709,13.2332 C22.8179,12.3012 23.3309,11.0332 23.1909,9.7442 C22.1109,9.7912 20.7589,10.4872 19.9809,11.3982 C19.2919,12.2012 18.6749,13.5182 18.8309,14.7572 C20.0439,14.8502 21.2909,14.1502 22.0709,13.2332" id="Fill-8" fill="#FFFFFF"></path><path d="M38.0689,26.6404 L41.8209,26.6474 L39.9809,21.1964 L39.9289,21.1964 L38.0689,26.6404 Z M42.3099,28.1974 L37.5769,28.1884 L36.4339,31.5424 L34.4289,31.5394 L38.9339,19.1294 L41.0169,19.1324 L45.4789,31.5584 L43.4399,31.5554 L42.3099,28.1974 Z" id="Fill-10" fill="#FFFFFF"></path><path d="M53.2594,27.0457 C53.2624,25.2127 52.3174,24.0057 50.8714,24.0037 C49.4514,24.0007 48.4944,25.2307 48.4914,27.0367 C48.4884,28.8607 49.4414,30.0847 50.8614,30.0877 C52.3064,30.0897 53.2554,28.8957 53.2594,27.0457 M55.1694,27.0487 C55.1644,29.8617 53.6554,31.6677 51.3834,31.6637 C50.0934,31.6607 49.0704,31.0827 48.5364,30.0747 L48.4934,30.0747 L48.4864,34.5597 L46.6274,34.5557 L46.6494,22.5067 L48.4474,22.5097 L48.4454,24.0157 L48.4794,24.0157 C48.9974,23.0447 50.1004,22.4177 51.3644,22.4207 C53.6624,22.4247 55.1744,24.2427 55.1694,27.0487" id="Fill-12" fill="#FFFFFF"></path><path d="M63.2242,27.0623 C63.2272,25.2293 62.2822,24.0233 60.8362,24.0203 C59.4162,24.0183 58.4592,25.2473 58.4562,27.0543 C58.4532,28.8783 59.4062,30.1023 60.8262,30.1043 C62.2712,30.1073 63.2202,28.9123 63.2242,27.0623 M65.1342,27.0663 C65.1292,29.8793 63.6202,31.6843 61.3482,31.6803 C60.0582,31.6783 59.0352,31.0993 58.5012,30.0913 L58.4582,30.0913 L58.4512,34.5763 L56.5922,34.5733 L56.6142,22.5243 L58.4122,22.5273 L58.4102,24.0333 L58.4442,24.0333 C58.9622,23.0623 60.0652,22.4353 61.3292,22.4373 C63.6272,22.4413 65.1392,24.2603 65.1342,27.0663" id="Fill-14" fill="#FFFFFF"></path><path d="M71.7183,28.1434 C71.8543,29.3754 73.0483,30.1864 74.6833,30.1894 C76.2493,30.1914 77.3783,29.3844 77.3803,28.2744 C77.3813,27.3104 76.7023,26.7324 75.0943,26.3334 L73.4863,25.9444 C71.2063,25.3894 70.1503,24.3214 70.1533,22.5904 C70.1563,20.4484 72.0263,18.9794 74.6773,18.9844 C77.3013,18.9884 79.0973,20.4624 79.1553,22.6064 L77.2793,22.6024 C77.1683,21.3634 76.1453,20.6134 74.6483,20.6114 C73.1513,20.6084 72.1253,21.3634 72.1233,22.4644 C72.1213,23.3424 72.7753,23.8604 74.3753,24.2584 L75.7423,24.5974 C78.2893,25.2044 79.3463,26.2294 79.3433,28.0454 C79.3393,30.3694 77.4863,31.8214 74.5423,31.8154 C71.7883,31.8114 69.9323,30.3864 69.8163,28.1404 L71.7183,28.1434 Z" id="Fill-16" fill="#FFFFFF"></path><path d="M83.3668,20.4276 L83.3638,22.5706 L85.0858,22.5736 L85.0828,24.0446 L83.3608,24.0416 L83.3518,29.0326 C83.3508,29.8086 83.6948,30.1706 84.4518,30.1716 C84.6408,30.1716 84.9428,30.1466 85.0628,30.1296 L85.0608,31.5926 C84.8548,31.6446 84.4418,31.6776 84.0288,31.6766 C82.1958,31.6736 81.4818,30.9846 81.4848,29.2286 L81.4938,24.0386 L80.1778,24.0356 L80.1798,22.5646 L81.4968,22.5676 L81.4998,20.4246 L83.3668,20.4276 Z" id="Fill-18" fill="#FFFFFF"></path><path d="M92.7701,27.1141 C92.7731,25.1601 91.8791,24.0051 90.3741,24.0021 C88.8681,24.0001 87.9711,25.1601 87.9681,27.1051 C87.9641,29.0671 88.8571,30.2141 90.3631,30.2161 C91.8691,30.2181 92.7661,29.0761 92.7701,27.1141 M86.0751,27.1021 C86.0801,24.2541 87.7601,22.4671 90.3761,22.4701 C93.0011,22.4751 94.6681,24.2681 94.6641,27.1171 C94.6591,29.9731 92.9941,31.7531 90.3601,31.7481 C87.7271,31.7441 86.0701,29.9591 86.0751,27.1021" id="Fill-20" fill="#FFFFFF"></path><path d="M96.2037,22.5926 L97.9757,22.5956 L97.9737,24.1366 L98.0157,24.1366 C98.3027,23.1126 99.1297,22.5026 100.1967,22.5046 C100.4637,22.5046 100.6867,22.5406 100.8337,22.5746 L100.8307,24.3136 C100.6837,24.2526 100.3567,24.1996 99.9957,24.1986 C98.7997,24.1966 98.0577,25.0056 98.0557,26.2796 L98.0467,31.6496 L96.1877,31.6466 L96.2037,22.5926 Z" id="Fill-22" fill="#FFFFFF"></path><path d="M103.1129,26.2967 L107.6389,26.3047 C107.5989,24.9187 106.7139,24.0047 105.4229,24.0027 C104.1399,24.0007 103.2109,24.9287 103.1129,26.2967 L103.1129,26.2967 Z M109.3899,29.0097 C109.1369,30.6517 107.5349,31.7777 105.4869,31.7747 C102.8529,31.7697 101.2219,30.0017 101.2269,27.1707 C101.2319,24.3307 102.8789,22.4917 105.4259,22.4967 C107.9299,22.5007 109.5029,24.2247 109.4979,26.9697 L109.4969,27.6067 L103.1019,27.5957 L103.1019,27.7077 C103.0989,29.2567 104.0699,30.2737 105.5329,30.2757 C106.5649,30.2777 107.3759,29.7887 107.6259,29.0067 L109.3899,29.0097 Z" id="Fill-24" fill="#FFFFFF"></path><polygon id="Fill-26" fill="#FFFFFF" points="37.2135 15.7498 37.2225 10.6268 35.3455 10.6228 35.3475 9.7798 40.0245 9.7878 40.0225 10.6318 38.1495 10.6278 38.1405 15.7518"></polygon><path d="M41.6842,9.075 C41.8212,9.021 42.0472,8.981 42.2712,8.981 C42.8632,8.982 43.2462,9.297 43.2462,9.794 C43.2452,10.211 42.9252,10.583 42.4552,10.751 L42.1162,10.312 C42.3852,10.226 42.5752,10.049 42.5752,9.871 C42.5762,9.689 42.3982,9.556 42.1462,9.555 C41.9642,9.555 41.7902,9.589 41.6832,9.641 L41.6842,9.075 Z M43.1972,14.102 L43.1982,13.725 L42.0982,13.794 C41.4772,13.835 41.1962,14.045 41.1952,14.442 C41.1952,14.847 41.5452,15.084 42.0292,15.085 C42.6992,15.086 43.1962,14.66 43.1972,14.102 L43.1972,14.102 Z M40.3012,14.482 C40.3032,13.672 40.9082,13.205 41.9792,13.14 L43.1992,13.072 L43.2002,12.683 C43.2002,12.208 42.8862,11.939 42.2792,11.938 C41.7832,11.937 41.4392,12.119 41.3392,12.436 L40.4792,12.435 C40.5712,11.662 41.2992,11.167 42.3212,11.169 C43.4502,11.171 44.0852,11.734 44.0842,12.685 L44.0792,15.762 L43.2232,15.761 L43.2242,15.128 L43.1542,15.128 C42.8842,15.578 42.3922,15.833 41.8002,15.832 C40.9322,15.831 40.3002,15.304 40.3012,14.482 L40.3012,14.482 Z" id="Fill-28" fill="#FFFFFF"></path><path d="M45.4937,11.2615 L46.3797,11.2625 L46.3717,15.7655 L45.4857,15.7645 L45.4937,11.2615 Z M45.3637,9.9295 C45.3647,9.6185 45.6087,9.3835 45.9397,9.3845 C46.2697,9.3855 46.5147,9.6205 46.5137,9.9315 C46.5137,10.2375 46.2677,10.4725 45.9377,10.4715 C45.6067,10.4715 45.3637,10.2355 45.3637,9.9295 L45.3637,9.9295 Z" id="Fill-30" fill="#FFFFFF"></path><polygon id="Fill-32" fill="#FFFFFF" points="52.439 15.7762 51.484 15.7742 49.867 11.2682 50.817 11.2702 51.932 14.8242 52.002 14.8242 53.125 11.2742 54.068 11.2762"></polygon><path d="M57.8785,9.1863 L56.9585,7.8853 L57.8845,7.8873 L58.6725,9.1873 L57.8785,9.1863 Z M55.6015,13.1153 L57.8755,13.1193 C57.8565,12.4113 57.4275,11.9513 56.7695,11.9503 C56.1115,11.9493 55.6515,12.4123 55.6015,13.1153 L55.6015,13.1153 Z M58.4175,10.6663 L57.4905,10.6653 L56.8105,9.8213 L56.7445,9.8213 L56.0605,10.6633 L55.1345,10.6623 L56.2945,9.2943 L57.2625,9.2963 L58.4175,10.6663 Z M58.7245,14.5713 C58.5215,15.3773 57.8005,15.8723 56.7715,15.8713 C55.4815,15.8683 54.6915,14.9823 54.6945,13.5423 C54.6975,12.1033 55.5055,11.1913 56.7745,11.1943 C58.0275,11.1963 58.7825,12.0533 58.7795,13.4673 L58.7795,13.7773 L55.6005,13.7723 L55.6005,13.8223 C55.6275,14.6113 56.0855,15.1123 56.7965,15.1143 C57.3345,15.1153 57.7035,14.9203 57.8685,14.5703 L58.7245,14.5713 Z" id="Fill-34" fill="#FFFFFF"></path><path d="M63.6246,10.1717 L63.6226,11.3137 L64.5986,11.3147 L64.5976,12.0637 L63.6216,12.0617 L63.6176,14.3767 C63.6166,14.8487 63.8106,15.0557 64.2526,15.0567 C64.3896,15.0567 64.4676,15.0487 64.5916,15.0357 L64.5906,15.7757 C64.4456,15.8007 64.2806,15.8207 64.1066,15.8207 C63.1186,15.8187 62.7266,15.4717 62.7276,14.6037 L62.7316,12.0607 L62.0176,12.0587 L62.0186,11.3107 L62.7326,11.3117 L62.7346,10.1697 L63.6246,10.1717 Z" id="Fill-36" fill="#FFFFFF"></path><path d="M65.7711,11.2957 L66.6261,11.2977 L66.6251,11.9877 L66.6921,11.9877 C66.8211,11.5457 67.3221,11.2247 67.9101,11.2257 C68.0421,11.2257 68.2111,11.2377 68.3061,11.2627 L68.3041,12.1397 C68.2301,12.1147 67.9651,12.0857 67.8081,12.0857 C67.1341,12.0837 66.6581,12.5097 66.6571,13.1427 L66.6531,15.8007 L65.7641,15.7987 L65.7711,11.2957 Z" id="Fill-38" fill="#FFFFFF"></path><path d="M69.8502,13.1395 L72.1242,13.1435 C72.1052,12.4365 71.6762,11.9755 71.0182,11.9745 C70.3612,11.9735 69.9012,12.4365 69.8502,13.1395 L69.8502,13.1395 Z M72.6632,10.6925 L71.7492,10.6905 L71.0592,9.7835 L70.9942,9.7835 L70.3022,10.6875 L69.3842,10.6865 L70.5432,9.2575 L71.5112,9.2595 L72.6632,10.6925 Z M72.9742,14.5955 C72.7702,15.4025 72.0492,15.8975 71.0202,15.8955 C69.7302,15.8925 68.9422,15.0065 68.9442,13.5675 C68.9472,12.1285 69.7552,11.2155 71.0252,11.2185 C72.2782,11.2205 73.0322,12.0775 73.0302,13.4925 L73.0292,13.8015 L69.8492,13.7965 L69.8492,13.8465 C69.8772,14.6355 70.3352,15.1365 71.0462,15.1385 C71.5842,15.1395 71.9532,14.9455 72.1192,14.5945 L72.9742,14.5955 Z" id="Fill-40" fill="#FFFFFF"></path><path d="M74.2262,11.3104 L75.0812,11.3124 L75.0802,12.0274 L75.1472,12.0274 C75.3672,11.5274 75.8152,11.2264 76.4932,11.2274 C77.4972,11.2294 78.0502,11.8334 78.0482,12.9054 L78.0432,15.8204 L77.1552,15.8194 L77.1592,13.1264 C77.1612,12.4034 76.8462,12.0424 76.1892,12.0414 C75.5322,12.0404 75.1132,12.4784 75.1122,13.1804 L75.1082,15.8154 L74.2192,15.8134 L74.2262,11.3104 Z" id="Fill-42" fill="#FFFFFF"></path></g></g></g></svg>
